<?xml version="1.0" encoding="UTF-8"?>
<svg width="1200pt" height="1200pt" version="1.1" viewBox="0 0 1200 1200" xmlns="http://www.w3.org/2000/svg">
 <path d="m372.24 108.46-12.285 61.762h322.7z"/>
 <path d="m912.42 1096.4 12.285-61.762h-322.67z"/>
 <path d="m191.95 931.25 29.305 5.8477v-153.23z"/>
 <path d="m1017.5 315.31-41.352 207.75v331.12l116.59-585.77-116.59-23.207v61.871z"/>
 <path d="m241.93 597.88h64.645v23.566h-64.645z"/>
 <path d="m241.93 486.84h64.645v23.543h-64.645z"/>
 <path d="m241.93 523.86h64.645v23.555h-64.645z"/>
 <path d="m241.93 560.87h64.645v23.543h-64.645z"/>
 <path d="m241.93 708.93h64.645v23.555h-64.645z"/>
 <path d="m241.93 671.91h64.645v23.543h-64.645z"/>
 <path d="m241.93 634.91h64.645v23.531h-64.645z"/>
 <path d="m241.93 301.75h64.645v23.555h-64.645z"/>
 <path d="m241.93 338.79h64.645v23.555h-64.645z"/>
 <path d="m241.93 412.81h64.645v23.543h-64.645z"/>
 <path d="m306.57 459.12v-9.3125h-64.641v23.555h64.641z"/>
 <path d="m241.93 375.8h64.645v23.531h-64.645z"/>
 <path d="m241.93 264.76h64.645v23.555h-64.645z"/>
 <path d="m241.93 1008.7h713.54v-3.6719h-713.54z"/>
 <path d="m890.83 745.93h64.645v23.566h-64.645z"/>
 <path d="m890.83 634.91h64.645v23.531h-64.645z"/>
 <path d="m890.83 412.81h64.645v23.543h-64.645z"/>
 <path d="m890.83 671.91h64.645v23.543h-64.645z"/>
 <path d="m241.93 968.04h713.54v23.566h-713.54z"/>
 <path d="m890.83 708.93h64.645v23.555h-64.645z"/>
 <path d="m890.83 338.79h64.645v23.555h-64.645z"/>
 <path d="m890.83 523.86h64.645v23.555h-64.645z"/>
 <path d="m890.83 264.76h64.645v23.555h-64.645z"/>
 <path d="m890.83 782.95h64.645v23.543h-64.645z"/>
 <path d="m890.83 325.31h64.645v-23.555h-64.645z"/>
 <path d="m955.48 190.89h-713.54v23.391h713.54z"/>
 <path d="m890.83 486.84h64.645v23.543h-64.645z"/>
 <path d="m241.93 856.99h713.54v23.543h-713.54z"/>
 <path d="m306.57 782.95h-64.641v23.543h64.641z"/>
 <path d="m890.83 560.87h64.645v23.543h-64.645z"/>
 <path d="m241.93 745.93h64.645v23.566h-64.645z"/>
 <path d="m890.83 449.81h64.645v23.555h-64.645z"/>
 <path d="m890.83 823.14h-584.26v-3.1797h-64.641v23.543h713.54v-23.543h-64.645z"/>
 <path d="m241.93 937.09v17.48h713.54v-23.543h-713.54z"/>
 <path d="m241.93 894.01h713.54v23.543h-713.54z"/>
 <path d="m890.83 375.8h64.645v23.531h-64.645z"/>
 <path d="m890.83 597.88h64.645v23.566h-64.645z"/>
 <path d="m955.48 227.73h-713.54v23.559h713.54z"/>
 <path d="m504.47 732.48h196.4c-6-7.8594-10.934-15.828-15-23.555h-166.4c-4.0312 7.7383-8.9766 15.695-15 23.555z"/>
 <path d="m533.81 671.91c-1.7656 6.875-4.3203 14.867-7.9336 23.543h153.62c-3.625-8.6641-6.1914-16.68-7.9805-23.543z"/>
 <path d="m538.01 648.96h-0.046874s-0.21484 3.5742-1.2344 9.4805h131.84c-0.80469-4.9336-1.0938-8.1836-1.1758-9.0977 6.3242-4.7539 12.301-9.6602 17.785-14.438h-164.44c5.3281 4.668 11.148 9.4453 17.27 14.055z"/>
 <path d="m429.96 523.86c0.23828 0.53906 0.39453 1.1289 0.66016 1.6562 3.5625 7.6094 7.3789 14.664 13.141 20.844 0.34766 0.34766 0.71875 0.70703 1.0312 1.0547h71.207l23.508-23.555z"/>
 <path d="m689.94 547.41h71.23c0.3125-0.34766 0.70703-0.70703 0.99609-1.0547 5.7617-6.1914 9.5898-13.246 13.164-20.844 0.26562-0.51562 0.45703-1.1172 0.67188-1.6562h-109.54z"/>
 <path d="m709.3 375.8h-212.69c-7.1055 7.1641-13.43 15.059-18.852 23.531h250.45c-5.4375-8.4727-11.762-16.367-18.914-23.531z"/>
 <path d="m648.37 338.79h-90.805c-16.535 5.2422-31.836 13.32-45.359 23.555h181.55c-13.523-10.234-28.832-18.312-45.383-23.555z"/>
 <path d="m627.01 436.36 23.594-23.543h-95.234l23.559 23.543z"/>
 <path d="m744.74 436.36c-2.2188-8.1953-5.2578-16.008-9-23.543h-80.316l23.508 23.543z"/>
 <path d="m470.17 412.81c-3.6953 7.5352-6.7578 15.359-8.9531 23.543h65.785l23.555-23.543z"/>
 <path d="m723.42 584.41c2.2305-6.8984 4.8594-15.059 7.5469-23.543h-28.512l-23.531 23.543z"/>
 <path d="m627.05 584.41-23.59-23.543h-0.9375l-23.59 23.543z"/>
 <path d="m474.97 560.87c2.6758 8.4844 5.293 16.656 7.5586 23.543h44.496l-23.578-23.543z"/>
 <path d="m529.46 486.84h-71.773c0.023438 0.38281 0.046875 0.73047 0.10938 1.1523-2.0898-0.79297-4.5352-1.0781-7.0078-1.1523h-2.0156c-2.4844 0.097656-4.9688 0.37109-7.0938 0.81641-10.633 2.1602-16.199 12.383-15.457 22.727h126.73z"/>
 <path d="m653.03 510.38h126.71c0.70703-10.344-4.8359-20.566-15.469-22.727-2.1367-0.44531-4.5977-0.73047-7.0938-0.81641h-2.0039c-2.4727 0.058594-4.9336 0.35938-7.0078 1.1523 0.023438-0.42188 0.046875-0.75781 0.10938-1.1523h-71.746z"/>
 <path d="m602.98 460.36 10.582-10.547h-21.129z"/>
 <path d="m513.56 449.81h-55.234c-1.1875 7.6562-1.6328 15.551-1.4023 23.555h59.074l-13.008-13.008z"/>
 <path d="m689.94 473.36h59.09c0.22656-8.0039-0.22656-15.898-1.4023-23.555h-55.211l10.512 10.535z"/>
 <path d="m640.5 597.88h-75.059l-12.492 12.492-12.492-12.492h-53.52c1.0938 3.3594 1.8008 5.4844 1.8008 5.4844s6.6602 7.6797 17.34 18.086h193.75c10.703-10.402 17.34-18.086 17.34-18.086s0.71875-2.1133 1.8242-5.4844h-53.52l-12.457 12.492z"/>
</svg>
